<?xml version="1.0" standalone="no"?>
<!DOCTYPE svg PUBLIC "-//W3C//DTD SVG 20010904//EN"
 "http://www.w3.org/TR/2001/REC-SVG-20010904/DTD/svg10.dtd">
<svg version="1.0" xmlns="http://www.w3.org/2000/svg"
 width="800.000000pt" height="800.000000pt" viewBox="0 0 800.000000 800.000000"
 preserveAspectRatio="xMidYMid meet">
<metadata>
Created by potrace 1.15, written by Peter Selinger 2001-2017
</metadata>
<g transform="translate(0.000000,800.000000) scale(0.100000,-0.100000)"
fill="#000000" stroke="none">
<path d="M3945 6535 l-25 -24 0 -511 0 -511 25 -24 c15 -16 36 -25 55 -25 19
0 40 9 55 25 l25 24 0 511 0 511 -25 24 c-15 16 -36 25 -55 25 -19 0 -40 -9
-55 -25z"/>
<path d="M5577 6203 c-125 -117 -447 -423 -489 -464 -45 -44 -44 -28 -22 -327
l17 -223 -186 -187 c-102 -103 -334 -338 -516 -522 -329 -333 -331 -335 -325
-292 8 53 -8 87 -48 101 -36 13 -72 0 -91 -31 -8 -13 -38 -103 -67 -201 -59
-194 -59 -218 -8 -246 24 -14 36 -13 125 8 54 12 130 29 168 38 117 25 134 33
150 63 21 42 19 58 -15 92 -27 27 -34 29 -72 23 -42 -7 -28 7 487 525 l530
532 70 -6 c39 -3 138 -8 220 -12 l150 -6 190 177 c105 98 243 227 308 288 64
61 120 121 123 134 9 34 -13 80 -44 92 -15 6 -106 26 -202 46 -96 20 -178 40
-182 43 -3 4 -23 93 -44 197 -43 209 -55 235 -114 235 -25 0 -47 -15 -113 -77z
m89 -290 l24 -118 -222 -222 c-123 -123 -226 -223 -229 -223 -7 0 -19 134 -22
236 l-2 51 210 201 c116 110 212 198 214 196 2 -2 14 -56 27 -121z m349 -275
c7 -6 4 -14 -7 -22 -9 -6 -81 -73 -160 -147 -78 -73 -169 -158 -200 -188 l-58
-54 -109 9 -110 9 217 222 217 223 100 -22 c55 -11 105 -25 110 -30z"/>
<path d="M3635 6048 c-855 -160 -1520 -820 -1679 -1667 -9 -46 -16 -96 -16
-112 l0 -29 79 0 79 0 7 58 c4 31 20 109 36 173 172 683 706 1215 1394 1389
61 16 136 31 168 35 l57 7 0 79 0 79 -37 -1 c-21 -1 -60 -5 -88 -11z"/>
<path d="M4240 5980 c0 -75 1 -80 21 -80 91 0 395 -89 545 -159 l84 -40 10 39
c6 22 22 53 37 70 14 17 24 33 21 35 -10 10 -178 84 -246 109 -146 52 -370
106 -443 106 l-29 0 0 -80z"/>
<path d="M3880 5195 c-8 -2 -49 -9 -90 -15 -234 -38 -455 -154 -635 -335 -221
-220 -335 -478 -351 -790 -18 -340 108 -660 355 -905 140 -139 289 -231 469
-289 136 -44 215 -56 372 -56 157 0 236 12 372 56 299 97 558 320 700 604 91
181 122 320 122 540 -1 213 -34 356 -123 533 -63 123 -57 120 -123 56 l-57
-55 35 -71 c229 -455 100 -997 -311 -1303 -420 -313 -1001 -261 -1366 121
-396 416 -382 1062 32 1460 325 312 786 381 1190 178 l86 -43 54 55 54 55 -25
21 c-67 55 -257 132 -402 164 -66 14 -321 28 -358 19z"/>
<path d="M5800 4984 c-8 -8 -34 -27 -59 -41 -25 -15 -47 -27 -49 -28 -1 -1 18
-44 43 -96 75 -159 165 -463 165 -558 0 -20 5 -21 80 -21 l80 0 0 29 c0 73
-48 278 -100 426 -37 103 -129 305 -140 305 -4 0 -13 -7 -20 -16z"/>
<path d="M3885 4590 c-267 -58 -465 -283 -482 -551 -18 -268 142 -508 405
-607 58 -22 84 -26 187 -26 100 -1 131 3 186 22 296 102 472 406 404 696 -10
42 -21 76 -24 76 -4 0 -34 -28 -68 -62 l-62 -63 14 -40 c31 -88 17 -147 -63
-255 -74 -99 -114 -136 -189 -172 -128 -61 -256 -61 -386 0 -167 78 -271 276
-240 458 26 150 111 260 263 338 76 40 97 46 148 46 32 0 74 -5 91 -11 32 -11
34 -10 97 52 l64 64 -52 18 c-60 21 -230 31 -293 17z"/>
<path d="M1465 4055 c-16 -15 -25 -36 -25 -55 0 -19 9 -40 25 -55 l24 -25 511
0 511 0 24 25 c32 31 32 74 0 109 l-24 26 -511 0 -511 0 -24 -25z"/>
<path d="M5465 4055 c-16 -15 -25 -36 -25 -55 0 -19 9 -40 25 -55 l24 -25 511
0 511 0 24 25 c16 15 25 36 25 55 0 19 -9 40 -25 55 l-24 25 -511 0 -511 0
-24 -25z"/>
<path d="M1940 3731 c0 -73 49 -279 101 -426 204 -580 688 -1064 1264 -1265
149 -52 354 -100 426 -100 l29 0 0 79 0 79 -57 7 c-32 4 -107 19 -168 35 -688
174 -1222 706 -1394 1389 -16 64 -32 142 -36 174 l-7 57 -79 0 -79 0 0 -29z"/>
<path d="M5900 3739 c0 -39 -41 -222 -70 -313 -16 -49 -28 -90 -27 -91 1 0 31
-15 67 -33 36 -18 68 -32 72 -32 6 0 45 111 72 210 20 74 46 215 46 251 l0 29
-80 0 c-75 0 -80 -1 -80 -21z"/>
<path d="M5335 3224 c-146 -31 -302 -130 -391 -247 -190 -251 -190 -583 0
-834 119 -158 334 -263 536 -263 202 0 417 105 536 263 190 250 190 584 0 834
-152 201 -426 300 -681 247z m264 -159 c147 -35 278 -140 345 -277 193 -391
-159 -833 -583 -733 -147 35 -278 140 -345 277 -193 391 159 833 583 733z"/>
<path d="M5548 2662 c-79 -65 -149 -121 -156 -126 -9 -5 -31 9 -67 43 -41 39
-61 51 -85 51 -55 0 -95 -60 -74 -114 3 -8 46 -51 95 -95 69 -62 96 -81 119
-81 22 0 68 33 207 146 98 80 186 154 196 166 25 29 22 74 -8 103 -46 47 -70
37 -227 -93z"/>
<path d="M3945 2535 l-25 -24 0 -511 0 -511 25 -24 c32 -33 78 -33 110 0 l25
24 0 511 0 511 -25 24 c-15 16 -36 25 -55 25 -19 0 -40 -9 -55 -25z"/>
<path d="M4615 2184 c-87 -31 -245 -70 -319 -79 l-56 -7 0 -79 0 -79 29 0 c42
0 183 28 283 56 79 22 228 72 236 79 9 8 -75 135 -88 134 -8 0 -46 -12 -85
-25z"/>
</g>
</svg>
